<?xml version="1.0" encoding="UTF-8"?>
<svg xmlns="http://www.w3.org/2000/svg" id="Layer_1" data-name="Layer 1" viewBox="0 0 300 300">
  <defs>
    <style>.cls-1{fill:#8fc043;}.cls-2{fill:#fff;}</style>
  </defs>
  <rect class="cls-1" x="75.71" y="184.95" width="147.11" height="52.75" rx="24.98"></rect>
  <path class="cls-1" d="M203.58,57.62H95A82.27,82.27,0,0,0,72,115c0,44.57,34.6,80.7,77.29,80.7s77.28-36.13,77.28-80.7a82.23,82.23,0,0,0-23-57.39"></path>
  <path class="cls-2" d="M165.57,118.21A16.19,16.19,0,1,1,149.39,102a16.18,16.18,0,0,1,16.18,16.18"></path>
  <path class="cls-2" d="M133,211.89a16.18,16.18,0,1,1-16.18-16.18A16.17,16.17,0,0,1,133,211.89"></path>
  <path class="cls-2" d="M198.18,211.89A16.18,16.18,0,1,1,182,195.71a16.17,16.17,0,0,1,16.18,16.18"></path>
  <path class="cls-2" d="M136.61,92.66a9.37,9.37,0,1,1-9.36-9.36,9.37,9.37,0,0,1,9.36,9.36"></path>
  <path class="cls-2" d="M181.18,92.66a9.37,9.37,0,1,1-9.36-9.36,9.37,9.37,0,0,1,9.36,9.36"></path>
</svg>
