<?xml version="1.0" encoding="UTF-8"?>
<svg xmlns="http://www.w3.org/2000/svg" id="Layer_1" data-name="Layer 1" viewBox="0 0 300 300">
  <defs>
    <style>.cls-1{fill:#8fc043;}.cls-2{fill:#fff;}</style>
  </defs>
  <path class="cls-1" d="M215.5,61H74.05a107.11,107.11,0,0,0-29.92,74.74c0,58,45.06,105.08,100.65,105.08s100.63-47,100.63-105.08A107.11,107.11,0,0,0,215.5,61"></path>
  <path class="cls-2" d="M109.26,146.47a21.1,21.1,0,1,1-21.09-21.09,21.09,21.09,0,0,1,21.09,21.09"></path>
  <path class="cls-2" d="M165.87,146.47a21.09,21.09,0,1,1-21.1-21.09,21.1,21.1,0,0,1,21.1,21.09"></path>
  <path class="cls-2" d="M138.12,189.76A21.09,21.09,0,1,1,117,168.67a21.09,21.09,0,0,1,21.09,21.09"></path>
  <path class="cls-2" d="M194.73,189.76a21.09,21.09,0,1,1-21.09-21.09,21.09,21.09,0,0,1,21.09,21.09"></path>
  <path class="cls-2" d="M222.48,146.47a21.09,21.09,0,1,1-21.1-21.09,21.1,21.1,0,0,1,21.1,21.09"></path>
  <path class="cls-2" d="M128.13,113.17A12.21,12.21,0,1,1,115.92,101a12.21,12.21,0,0,1,12.21,12.21"></path>
  <path class="cls-2" d="M186.22,113.17A12.21,12.21,0,1,1,174,101a12.21,12.21,0,0,1,12.21,12.21"></path>
</svg>
