<?xml version="1.0" encoding="UTF-8"?>
<svg xmlns="http://www.w3.org/2000/svg" id="Layer_1" data-name="Layer 1" viewBox="0 0 300 300">
  <defs>
    <style>.cls-1{fill:#8fc043;}.cls-2{fill:#fff;}</style>
  </defs>
  <path class="cls-1" d="M225.31,147.07A75.48,75.48,0,1,0,128,219.32a15.74,15.74,0,0,0-.35,3.23c0,10.42,9.94,18.87,22.2,18.87S172,233,172,222.55a15.74,15.74,0,0,0-.35-3.23,75.49,75.49,0,0,0,53.63-72.25"></path>
  <path class="cls-1" d="M74.35,148.18a75.48,75.48,0,1,0,97.34-72.26,16.38,16.38,0,0,0,.34-3.23c0-10.42-9.93-18.87-22.19-18.87s-22.2,8.45-22.2,18.87a16.38,16.38,0,0,0,.34,3.23,75.5,75.5,0,0,0-53.63,72.26"></path>
  <path class="cls-2" d="M166.85,181.11a17.76,17.76,0,1,1-17.76-17.77,17.76,17.76,0,0,1,17.76,17.77"></path>
  <path class="cls-2" d="M137.62,127.09a17.76,17.76,0,1,1-17.75-17.77,17.76,17.76,0,0,1,17.75,17.77"></path>
  <path class="cls-2" d="M197.56,127.09a17.76,17.76,0,1,1-17.76-17.77,17.76,17.76,0,0,1,17.76,17.77"></path>
  <path class="cls-2" d="M202,177a12.21,12.21,0,1,1-12.2-12.21A12.2,12.2,0,0,1,202,177"></path>
  <path class="cls-2" d="M122.08,177a12.21,12.21,0,1,1-12.21-12.21A12.2,12.2,0,0,1,122.08,177"></path>
</svg>
